<svg width="375.751" height="278.555" viewBox="0 0 375.751 278.555" xmlns="http://www.w3.org/2000/svg"><g id="svgGroup" stroke-linecap="round" fill-rule="evenodd" font-size="9pt" stroke="#000" stroke-width="0.25mm" fill="#00ff88" style="stroke:#000;stroke-width:0.25mm;fill:#00ff88"><path d="M 75.601 233.251 L 3.151 179.551 Q 1.351 177.901 0.676 176.476 Q 0.001 175.051 0.001 173.251 Q 0.001 171.001 1.276 169.276 Q 2.551 167.551 4.501 166.351 L 104.101 122.701 Q 107.551 121.201 109.876 121.501 Q 112.201 121.801 113.626 123.151 Q 115.051 124.501 115.501 126.451 A 9.792 9.792 0 0 1 115.76 128.62 A 6.784 6.784 0 0 1 114.826 132.151 Q 113.401 134.551 107.551 137.251 L 22.651 174.751 L 85.801 221.401 Q 90.151 224.551 90.676 227.851 A 7.469 7.469 0 0 1 90.77 229.026 A 8.111 8.111 0 0 1 88.801 234.151 A 6.974 6.974 0 0 1 83.521 236.478 A 8.368 8.368 0 0 1 83.326 236.476 Q 80.101 236.401 75.601 233.251 Z" id="0" vector-effect="non-scaling-stroke"/><path d="M 148.651 268.201 L 260.551 8.401 Q 262.651 3.601 265.351 1.801 Q 268.051 0.001 271.201 0.001 Q 273.901 0.001 276.076 1.276 Q 278.251 2.551 279.076 5.101 Q 279.901 7.651 278.251 11.401 L 166.051 271.201 Q 164.251 275.251 161.701 276.901 Q 159.151 278.551 156.001 278.551 Q 153.001 278.551 150.826 277.426 Q 148.651 276.301 147.901 273.976 Q 147.151 271.651 148.651 268.201 Z" id="2" vector-effect="non-scaling-stroke"/><path d="M 370.801 191.851 L 271.651 235.351 A 13.43 13.43 0 0 1 266.445 236.655 A 6.898 6.898 0 0 1 265.801 236.626 Q 263.401 236.401 262.051 234.976 Q 260.701 233.551 260.101 231.751 Q 259.501 228.301 260.926 225.901 Q 262.351 223.501 267.901 220.951 L 353.251 183.301 L 289.951 136.951 Q 285.751 133.501 285.076 130.201 A 7.468 7.468 0 0 1 284.92 128.702 A 7.386 7.386 0 0 1 286.651 124.051 Q 289.201 121.501 292.351 121.651 Q 295.501 121.801 299.701 125.101 L 372.151 178.501 Q 374.101 180.301 374.926 181.876 Q 375.751 183.451 375.751 185.101 Q 375.751 187.201 374.476 188.926 Q 373.201 190.651 370.801 191.851 Z" id="3" vector-effect="non-scaling-stroke"/></g></svg>